<svg xmlns="http://www.w3.org/2000/svg" width="60" height="60" viewBox="0 0 60 60">
  <circle cx="30" cy="30" r="28" fill="#f0f5ff" stroke="#1890ff" stroke-width="2"/>
  <path d="M30,15 L30,30 L40,35" fill="none" stroke="#1890ff" stroke-width="2" stroke-linecap="round" stroke-linejoin="round"/>
  <circle cx="30" cy="30" r="3" fill="#1890ff"/>
  <path d="M18,20 L15,20 M18,30 L15,30 M18,40 L15,40 M42,20 L45,20 M42,30 L45,30 M42,40 L45,40 M20,18 L20,15 M30,18 L30,15 M40,18 L40,15 M20,42 L20,45 M30,42 L30,45 M40,42 L40,45" stroke="#1890ff" stroke-width="2" stroke-linecap="round"/>
</svg>