<svg xmlns="http://www.w3.org/2000/svg" width="800" height="400" viewBox="0 0 800 400">
  <!-- Background -->
  <rect width="800" height="400" fill="#e6f7ff" />
  
  <!-- Water -->
  <rect width="800" height="200" y="200" fill="#bae7ff" />
  
  <!-- Land -->
  <path d="M0,200 Q200,180 400,220 T800,200 V0 H0 Z" fill="#d9f7be" />
  
  <!-- Roads -->
  <path d="M100,100 L700,100 M100,150 L700,150 M200,50 L200,250 M400,50 L400,250 M600,50 L600,250" stroke="#d9d9d9" stroke-width="10" />
  
  <!-- Buildings -->
  <rect x="180" y="80" width="40" height="40" fill="#8c8c8c" />
  <rect x="380" y="80" width="40" height="40" fill="#8c8c8c" />
  <rect x="580" y="80" width="40" height="40" fill="#8c8c8c" />
  <rect x="180" y="180" width="40" height="40" fill="#8c8c8c" />
  <rect x="380" y="180" width="40" height="40" fill="#8c8c8c" />
  <rect x="580" y="180" width="40" height="40" fill="#8c8c8c" />
  
  <!-- Office Location -->
  <circle cx="400" cy="130" r="15" fill="#ff4d4f" />
  <circle cx="400" cy="130" r="7" fill="white" />
  
  <!-- Ships -->
  <path d="M150,300 L170,300 L180,310 L140,310 Z" fill="#1890ff" />
  <path d="M650,320 L670,320 L680,330 L640,330 Z" fill="#1890ff" />
  <path d="M350,280 L370,280 L380,290 L340,290 Z" fill="#1890ff" />
  
  <!-- Compass -->
  <circle cx="700" cy="70" r="30" fill="white" stroke="#1890ff" stroke-width="2" />
  <path d="M700,40 L700,100 M670,70 L730,70 M685,55 L715,85 M685,85 L715,55" stroke="#1890ff" stroke-width="2" />
  <text x="698" y="50" font-family="Arial, sans-serif" font-size="10" fill="#1890ff">N</text>
  <text x="720" y="73" font-family="Arial, sans-serif" font-size="10" fill="#1890ff">E</text>
  <text x="698" y="95" font-family="Arial, sans-serif" font-size="10" fill="#1890ff">S</text>
  <text x="675" y="73" font-family="Arial, sans-serif" font-size="10" fill="#1890ff">W</text>
  
  <!-- Map Label -->
  <text x="400" y="350" font-family="Arial, sans-serif" font-size="20" fill="#001529" text-anchor="middle">Abu Dhabi, UAE</text>
</svg>