<svg xmlns="http://www.w3.org/2000/svg" width="400" height="250" viewBox="0 0 400 250">
  <!-- Sky Background -->
  <linearGradient id="skyGradient" x1="0%" y1="0%" x2="0%" y2="100%">
    <stop offset="0%" style="stop-color:#FF9E80;stop-opacity:1" />
    <stop offset="100%" style="stop-color:#FFECB3;stop-opacity:1" />
  </linearGradient>
  <rect width="400" height="150" fill="url(#skyGradient)" />
  
  <!-- Water -->
  <rect width="400" height="100" y="150" fill="#00838F" />
  
  <!-- Burj Khalifa -->
  <polygon points="200,20 190,150 210,150" fill="#455A64" />
  <polygon points="195,30 190,60 210,60 205,30" fill="#78909C" />
  <polygon points="193,70 190,100 210,100 207,70" fill="#78909C" />
  <polygon points="191,110 190,150 210,150 209,110" fill="#78909C" />
  
  <!-- Other Skyscrapers -->
  <rect x="100" y="70" width="40" height="130" fill="#90A4AE" />
  <rect x="150" y="90" width="30" height="110" fill="#B0BEC5" />
  <rect x="230" y="80" width="35" height="120" fill="#90A4AE" />
  <rect x="275" y="60" width="45" height="140" fill="#78909C" />
  <rect x="330" y="100" width="30" height="100" fill="#B0BEC5" />
  
  <!-- Windows -->
  <rect x="110" y="80" width="5" height="5" fill="#FFECB3" />
  <rect x="125" y="80" width="5" height="5" fill="#FFECB3" />
  <rect x="110" y="95" width="5" height="5" fill="#FFECB3" />
  <rect x="125" y="95" width="5" height="5" fill="#FFECB3" />
  <rect x="110" y="110" width="5" height="5" fill="#FFECB3" />
  <rect x="125" y="110" width="5" height="5" fill="#FFECB3" />
  <rect x="110" y="125" width="5" height="5" fill="#FFECB3" />
  <rect x="125" y="125" width="5" height="5" fill="#FFECB3" />
  <rect x="110" y="140" width="5" height="5" fill="#FFECB3" />
  <rect x="125" y="140" width="5" height="5" fill="#FFECB3" />
  
  <rect x="155" y="100" width="5" height="5" fill="#FFECB3" />
  <rect x="170" y="100" width="5" height="5" fill="#FFECB3" />
  <rect x="155" y="115" width="5" height="5" fill="#FFECB3" />
  <rect x="170" y="115" width="5" height="5" fill="#FFECB3" />
  <rect x="155" y="130" width="5" height="5" fill="#FFECB3" />
  <rect x="170" y="130" width="5" height="5" fill="#FFECB3" />
  <rect x="155" y="145" width="5" height="5" fill="#FFECB3" />
  <rect x="170" y="145" width="5" height="5" fill="#FFECB3" />
  
  <rect x="235" y="90" width="5" height="5" fill="#FFECB3" />
  <rect x="250" y="90" width="5" height="5" fill="#FFECB3" />
  <rect x="235" y="105" width="5" height="5" fill="#FFECB3" />
  <rect x="250" y="105" width="5" height="5" fill="#FFECB3" />
  <rect x="235" y="120" width="5" height="5" fill="#FFECB3" />
  <rect x="250" y="120" width="5" height="5" fill="#FFECB3" />
  <rect x="235" y="135" width="5" height="5" fill="#FFECB3" />
  <rect x="250" y="135" width="5" height="5" fill="#FFECB3" />
  
  <rect x="285" y="70" width="5" height="5" fill="#FFECB3" />
  <rect x="300" y="70" width="5" height="5" fill="#FFECB3" />
  <rect x="285" y="85" width="5" height="5" fill="#FFECB3" />
  <rect x="300" y="85" width="5" height="5" fill="#FFECB3" />
  <rect x="285" y="100" width="5" height="5" fill="#FFECB3" />
  <rect x="300" y="100" width="5" height="5" fill="#FFECB3" />
  <rect x="285" y="115" width="5" height="5" fill="#FFECB3" />
  <rect x="300" y="115" width="5" height="5" fill="#FFECB3" />
  <rect x="285" y="130" width="5" height="5" fill="#FFECB3" />
  <rect x="300" y="130" width="5" height="5" fill="#FFECB3" />
  <rect x="285" y="145" width="5" height="5" fill="#FFECB3" />
  <rect x="300" y="145" width="5" height="5" fill="#FFECB3" />
  
  <rect x="335" y="110" width="5" height="5" fill="#FFECB3" />
  <rect x="350" y="110" width="5" height="5" fill="#FFECB3" />
  <rect x="335" y="125" width="5" height="5" fill="#FFECB3" />
  <rect x="350" y="125" width="5" height="5" fill="#FFECB3" />
  <rect x="335" y="140" width="5" height="5" fill="#FFECB3" />
  <rect x="350" y="140" width="5" height="5" fill="#FFECB3" />
  
  <!-- AD Shipping Office -->
  <rect x="50" y="100" width="40" height="100" fill="#1890ff" />
  <rect x="60" y="110" width="20" height="80" fill="#40a9ff" />
  <text x="70" y="150" font-family="Arial, sans-serif" font-size="10" fill="white" text-anchor="middle">AD</text>
  
  <!-- Boats -->
  <path d="M80,180 L100,180 L110,190 L70,190 Z" fill="#455A64" />
  <path d="M220,170 L240,170 L250,180 L210,180 Z" fill="#455A64" />
  <path d="M320,190 L340,190 L350,200 L310,200 Z" fill="#455A64" />
  
  <!-- Label -->
  <rect x="0" y="220" width="400" height="30" fill="rgba(0,0,0,0.5)" />
  <text x="200" y="240" font-family="Arial, sans-serif" font-size="16" fill="white" text-anchor="middle">Dubai Office</text>
</svg>