<svg xmlns="http://www.w3.org/2000/svg" width="400" height="250" viewBox="0 0 400 250">
  <!-- Sky Background -->
  <linearGradient id="skyGradient" x1="0%" y1="0%" x2="0%" y2="100%">
    <stop offset="0%" style="stop-color:#87CEEB;stop-opacity:1" />
    <stop offset="100%" style="stop-color:#E0F7FA;stop-opacity:1" />
  </linearGradient>
  <rect width="400" height="150" fill="url(#skyGradient)" />
  
  <!-- Water -->
  <rect width="400" height="100" y="150" fill="#0277BD" />
  
  <!-- Sun -->
  <circle cx="50" cy="50" r="30" fill="#FFD54F" />
  
  <!-- Buildings -->
  <rect x="100" y="70" width="60" height="130" fill="#455A64" />
  <rect x="160" y="50" width="80" height="150" fill="#546E7A" />
  <rect x="240" y="90" width="70" height="110" fill="#607D8B" />
  
  <!-- Windows -->
  <rect x="110" y="80" width="10" height="10" fill="#BBDEFB" />
  <rect x="130" y="80" width="10" height="10" fill="#BBDEFB" />
  <rect x="110" y="100" width="10" height="10" fill="#BBDEFB" />
  <rect x="130" y="100" width="10" height="10" fill="#BBDEFB" />
  <rect x="110" y="120" width="10" height="10" fill="#BBDEFB" />
  <rect x="130" y="120" width="10" height="10" fill="#BBDEFB" />
  <rect x="110" y="140" width="10" height="10" fill="#BBDEFB" />
  <rect x="130" y="140" width="10" height="10" fill="#BBDEFB" />
  
  <rect x="170" y="60" width="10" height="10" fill="#BBDEFB" />
  <rect x="190" y="60" width="10" height="10" fill="#BBDEFB" />
  <rect x="210" y="60" width="10" height="10" fill="#BBDEFB" />
  <rect x="170" y="80" width="10" height="10" fill="#BBDEFB" />
  <rect x="190" y="80" width="10" height="10" fill="#BBDEFB" />
  <rect x="210" y="80" width="10" height="10" fill="#BBDEFB" />
  <rect x="170" y="100" width="10" height="10" fill="#BBDEFB" />
  <rect x="190" y="100" width="10" height="10" fill="#BBDEFB" />
  <rect x="210" y="100" width="10" height="10" fill="#BBDEFB" />
  <rect x="170" y="120" width="10" height="10" fill="#BBDEFB" />
  <rect x="190" y="120" width="10" height="10" fill="#BBDEFB" />
  <rect x="210" y="120" width="10" height="10" fill="#BBDEFB" />
  <rect x="170" y="140" width="10" height="10" fill="#BBDEFB" />
  <rect x="190" y="140" width="10" height="10" fill="#BBDEFB" />
  <rect x="210" y="140" width="10" height="10" fill="#BBDEFB" />
  
  <rect x="250" y="100" width="10" height="10" fill="#BBDEFB" />
  <rect x="270" y="100" width="10" height="10" fill="#BBDEFB" />
  <rect x="290" y="100" width="10" height="10" fill="#BBDEFB" />
  <rect x="250" y="120" width="10" height="10" fill="#BBDEFB" />
  <rect x="270" y="120" width="10" height="10" fill="#BBDEFB" />
  <rect x="290" y="120" width="10" height="10" fill="#BBDEFB" />
  <rect x="250" y="140" width="10" height="10" fill="#BBDEFB" />
  <rect x="270" y="140" width="10" height="10" fill="#BBDEFB" />
  <rect x="290" y="140" width="10" height="10" fill="#BBDEFB" />
  
  <!-- AD Shipping HQ Building -->
  <rect x="320" y="30" width="60" height="170" fill="#1890ff" />
  <rect x="330" y="40" width="40" height="150" fill="#40a9ff" />
  <text x="350" y="120" font-family="Arial, sans-serif" font-size="12" fill="white" text-anchor="middle">AD</text>
  <text x="350" y="135" font-family="Arial, sans-serif" font-size="12" fill="white" text-anchor="middle">HQ</text>
  
  <!-- Boats -->
  <path d="M50,180 L70,180 L80,190 L40,190 Z" fill="#455A64" />
  <path d="M150,170 L180,170 L190,180 L140,180 Z" fill="#455A64" />
  <path d="M280,190 L300,190 L310,200 L270,200 Z" fill="#455A64" />
  
  <!-- Label -->
  <rect x="0" y="220" width="400" height="30" fill="rgba(0,0,0,0.5)" />
  <text x="200" y="240" font-family="Arial, sans-serif" font-size="16" fill="white" text-anchor="middle">Abu Dhabi Headquarters</text>
</svg>