<svg xmlns="http://www.w3.org/2000/svg" width="100" height="100" viewBox="0 0 100 100">
  <!-- Background Circle -->
  <circle cx="50" cy="50" r="45" fill="#e6f7ff" />
  
  <!-- Port Structure -->
  <g>
    <!-- Dock/Pier -->
    <rect x="10" y="60" width="80" height="10" fill="#8c8c8c" />
    
    <!-- Dock Supports -->
    <rect x="15" y="70" width="5" height="10" fill="#595959" />
    <rect x="35" y="70" width="5" height="10" fill="#595959" />
    <rect x="55" y="70" width="5" height="10" fill="#595959" />
    <rect x="75" y="70" width="5" height="10" fill="#595959" />
    
    <!-- Water -->
    <rect x="10" y="80" width="80" height="5" fill="#1890ff" opacity="0.7" />
  </g>
  
  <!-- Ship at Dock -->
  <g>
    <!-- Ship Hull -->
    <path d="M15,60 L40,60 L38,45 L17,45 Z" fill="#001529" />
    
    <!-- Ship Deck -->
    <rect x="17" y="45" width="21" height="2" fill="#8c8c8c" />
    
    <!-- Bridge/Superstructure -->
    <rect x="30" y="35" width="8" height="10" fill="#001529" />
    
    <!-- Ship Windows -->
    <rect x="31" y="37" width="6" height="3" fill="#bae7ff" />
    
    <!-- Mooring Lines -->
    <line x1="15" y1="55" x2="10" y2="60" stroke="#262626" stroke-width="1" />
    <line x1="40" y1="55" x2="45" y2="60" stroke="#262626" stroke-width="1" />
  </g>
  
  <!-- Port Equipment -->
  <g>
    <!-- Container Crane -->
    <rect x="50" y="25" width="30" height="5" fill="#8c8c8c" />
    <rect x="50" y="25" width="5" height="35" fill="#8c8c8c" />
    <rect x="75" y="25" width="5" height="35" fill="#8c8c8c" />
    <rect x="55" y="30" width="20" height="10" fill="#d9d9d9" />
    
    <!-- Container -->
    <rect x="60" y="45" width="10" height="5" fill="#fa8c16" />
    <line x1="65" y1="40" x2="65" y2="45" stroke="#262626" stroke-width="1" />
  </g>
  
  <!-- Containers on Dock -->
  <g>
    <!-- Stack 1 -->
    <rect x="80" y="50" width="8" height="5" fill="#1890ff" />
    <rect x="80" y="55" width="8" height="5" fill="#52c41a" />
    
    <!-- Stack 2 -->
    <rect x="70" y="55" width="8" height="5" fill="#722ed1" />
  </g>
  
  <!-- Port Control Tower -->
  <g>
    <!-- Tower Base -->
    <rect x="10" y="30" width="10" height="30" fill="#d9d9d9" />
    
    <!-- Tower Top -->
    <rect x="8" y="20" width="14" height="10" fill="#d9d9d9" />
    
    <!-- Windows -->
    <rect x="9" y="22" width="12" height="6" fill="#bae7ff" />
    
    <!-- Antenna -->
    <line x1="15" y1="20" x2="15" y2="15" stroke="#262626" stroke-width="1" />
    <circle cx="15" cy="14" r="1" fill="#f5222d" />
  </g>
</svg>