<svg xmlns="http://www.w3.org/2000/svg" width="100" height="100" viewBox="0 0 100 100">
  <!-- Background Circle -->
  <circle cx="50" cy="50" r="45" fill="#e6f7ff" />
  
  <!-- Dry Dock Structure -->
  <g>
    <!-- Dock Walls -->
    <path d="M20,70 L20,40 L80,40 L80,70 Z" fill="none" stroke="#8c8c8c" stroke-width="2" />
    
    <!-- Dock Floor -->
    <rect x="20" y="70" width="60" height="5" fill="#d9d9d9" />
    
    <!-- Support Blocks -->
    <rect x="30" y="65" width="5" height="5" fill="#fa8c16" />
    <rect x="45" y="65" width="5" height="5" fill="#fa8c16" />
    <rect x="60" y="65" width="5" height="5" fill="#fa8c16" />
    <rect x="75" y="65" width="5" height="5" fill="#fa8c16" />
  </g>
  
  <!-- Ship in Dry Dock -->
  <g>
    <!-- Ship Hull -->
    <path d="M25,65 L75,65 L70,45 L30,45 Z" fill="#001529" />
    
    <!-- Ship Deck -->
    <rect x="30" y="45" width="40" height="2" fill="#8c8c8c" />
    
    <!-- Bridge/Superstructure -->
    <rect x="55" y="35" width="10" height="10" fill="#001529" />
    
    <!-- Propeller Area -->
    <circle cx="30" cy="60" r="3" fill="#ffd666" />
  </g>
  
  <!-- Repair Tools and Equipment -->
  <g>
    <!-- Scaffolding -->
    <line x1="25" y1="45" x2="25" y2="65" stroke="#1890ff" stroke-width="1" />
    <line x1="28" y1="45" x2="28" y2="65" stroke="#1890ff" stroke-width="1" />
    <line x1="25" y1="50" x2="28" y2="50" stroke="#1890ff" stroke-width="1" />
    <line x1="25" y1="55" x2="28" y2="55" stroke="#1890ff" stroke-width="1" />
    <line x1="25" y1="60" x2="28" y2="60" stroke="#1890ff" stroke-width="1" />
    
    <!-- Worker -->
    <circle cx="35" cy="55" r="2" fill="#ffa940" />
    <rect x="34" y="57" width="2" height="3" fill="#ffa940" />
    <rect x="33" y="60" width="4" height="2" fill="#096dd9" />
    
    <!-- Crane -->
    <rect x="15" y="30" width="5" height="40" fill="#8c8c8c" />
    <rect x="15" y="30" width="15" height="3" fill="#8c8c8c" />
    <line x1="25" y1="33" x2="25" y2="40" stroke="#262626" stroke-width="1" />
    <path d="M24,40 L26,40 L26,42 L25,43 L24,42 Z" fill="#262626" />
  </g>
  
  <!-- Water Drainage/Pumping -->
  <g>
    <!-- Pump -->
    <rect x="85" y="60" width="5" height="7" fill="#8c8c8c" />
    
    <!-- Pipes -->
    <path d="M85,63 L80,63 L80,70" stroke="#8c8c8c" stroke-width="1" fill="none" />
    
    <!-- Water Droplets -->
    <circle cx="83" cy="66" r="1" fill="#1890ff" />
    <circle cx="81" cy="68" r="1" fill="#1890ff" />
  </g>
</svg>