<svg xmlns="http://www.w3.org/2000/svg" width="100" height="100" viewBox="0 0 100 100">
  <!-- Background Circle -->
  <circle cx="50" cy="50" r="45" fill="#e6f7ff" />
  
  <!-- Water -->
  <rect x="5" y="70" width="90" height="15" fill="#1890ff" opacity="0.7" />
  
  <!-- Single Point Mooring (SPM) Buoy -->
  <g>
    <!-- Buoy Body -->
    <circle cx="50" cy="60" r="10" fill="#fa8c16" stroke="#d4b106" stroke-width="1" />
    
    <!-- Buoy Top Structure -->
    <rect x="45" y="45" width="10" height="5" fill="#8c8c8c" />
    
    <!-- Mooring Point -->
    <circle cx="50" cy="50" r="2" fill="#262626" />
    
    <!-- Anchor Chains -->
    <line x1="40" y1="65" x2="30" y2="75" stroke="#8c8c8c" stroke-width="2" />
    <line x1="60" y1="65" x2="70" y2="75" stroke="#8c8c8c" stroke-width="2" />
  </g>
  
  <!-- Tanker Ship -->
  <g>
    <!-- Ship Hull -->
    <path d="M60,55 L90,55 L85,40 L65,40 Z" fill="#003a8c" />
    
    <!-- Ship Deck -->
    <rect x="65" y="40" width="20" height="2" fill="#8c8c8c" />
    
    <!-- Bridge/Superstructure (at the back for tankers) -->
    <rect x="65" y="30" width="10" height="10" fill="#003a8c" />
    
    <!-- Ship Windows -->
    <rect x="66" y="32" width="8" height="3" fill="#bae7ff" />
    
    <!-- Smokestack -->
    <rect x="67" y="25" width="6" height="5" fill="#003a8c" />
    <ellipse cx="70" cy="25" rx="3" ry="1" fill="#8c8c8c" opacity="0.7" />
    
    <!-- Mooring Line to SPM -->
    <path d="M60,50 Q55,52 50,50" stroke="#262626" stroke-width="1" fill="none" />
  </g>
  
  <!-- Underwater Pipeline -->
  <g>
    <!-- Main Pipeline -->
    <path d="M50,70 L50,80 L20,80" stroke="#8c8c8c" stroke-width="3" fill="none" />
    
    <!-- Pipeline Supports/Anchors -->
    <rect x="40" y="78" width="4" height="4" fill="#d9d9d9" />
    <rect x="30" y="78" width="4" height="4" fill="#d9d9d9" />
  </g>
  
  <!-- Shore Facility -->
  <g>
    <!-- Land -->
    <path d="M5,70 L20,70 L20,85 L5,85 Z" fill="#d9d9d9" />
    
    <!-- Storage Tank -->
    <circle cx="15" cy="65" r="5" fill="#8c8c8c" stroke="#595959" stroke-width="1" />
    
    <!-- Pipeline Connection -->
    <line x1="15" y1="70" x2="20" y2="80" stroke="#8c8c8c" stroke-width="2" />
  </g>
  
  <!-- Directional Indicators -->
  <g>
    <!-- Flow Arrows -->
    <path d="M35,78 L40,78 L37.5,76 Z" fill="#262626" />
    <path d="M25,78 L30,78 L27.5,76 Z" fill="#262626" />
  </g>
</svg>