<svg xmlns="http://www.w3.org/2000/svg" width="100" height="100" viewBox="0 0 100 100">
  <!-- Background Circle -->
  <circle cx="50" cy="50" r="45" fill="#e6f7ff" />
  
  <!-- Ship Under Construction -->
  <g transform="translate(20, 60)">
    <!-- Ship Hull -->
    <path d="M0,0 L60,0 L55,-15 L5,-15 Z" fill="#001529" />
    
    <!-- Ship Deck -->
    <rect x="5" y="-15" width="50" height="2" fill="#8c8c8c" />
    
    <!-- Bridge/Superstructure -->
    <rect x="40" y="-25" width="10" height="10" fill="#001529" />
  </g>
  
  <!-- Crane -->
  <g transform="translate(30, 30)">
    <!-- Crane Base -->
    <rect x="0" y="0" width="10" height="30" fill="#8c8c8c" />
    
    <!-- Crane Arm -->
    <rect x="0" y="0" width="30" height="5" fill="#8c8c8c" />
    
    <!-- Crane Cable -->
    <line x1="25" y1="5" x2="25" y2="20" stroke="#262626" stroke-width="1" />
    
    <!-- Crane Hook -->
    <path d="M23,20 L27,20 L27,25 L25,27 L23,25 Z" fill="#262626" />
  </g>
  
  <!-- Construction Elements -->
  <g>
    <!-- Scaffolding -->
    <line x1="20" y1="40" x2="20" y2="60" stroke="#1890ff" stroke-width="2" />
    <line x1="25" y1="40" x2="25" y2="60" stroke="#1890ff" stroke-width="2" />
    <line x1="20" y1="45" x2="25" y2="45" stroke="#1890ff" stroke-width="2" />
    <line x1="20" y1="50" x2="25" y2="50" stroke="#1890ff" stroke-width="2" />
    <line x1="20" y1="55" x2="25" y2="55" stroke="#1890ff" stroke-width="2" />
    
    <!-- Blueprint -->
    <rect x="65" y="30" width="15" height="20" fill="#bae7ff" />
    <line x1="67" y1="35" x2="78" y2="35" stroke="#1890ff" stroke-width="1" />
    <line x1="67" y1="40" x2="78" y2="40" stroke="#1890ff" stroke-width="1" />
    <line x1="67" y1="45" x2="78" y2="45" stroke="#1890ff" stroke-width="1" />
  </g>
  
  <!-- Tools -->
  <g>
    <!-- Hammer -->
    <rect x="60" y="55" width="10" height="5" fill="#8c8c8c" />
    <rect x="70" y="53" width="5" height="9" fill="#595959" />
    
    <!-- Wrench -->
    <path d="M75,65 Q80,60 75,55 L80,50 Q90,60 85,70 Z" fill="#8c8c8c" />
  </g>
</svg>