<svg xmlns="http://www.w3.org/2000/svg" width="100" height="100" viewBox="0 0 100 100">
  <!-- Background Circle -->
  <circle cx="50" cy="50" r="45" fill="#e6f7ff" />
  
  <!-- Water -->
  <rect x="5" y="70" width="90" height="15" fill="#1890ff" opacity="0.7" />
  
  <!-- Tugboat -->
  <g>
    <!-- Tugboat Hull -->
    <path d="M20,70 L40,70 L38,60 L22,60 Z" fill="#fa8c16" />
    
    <!-- Tugboat Deck -->
    <rect x="22" y="60" width="16" height="2" fill="#8c8c8c" />
    
    <!-- Tugboat Bridge/Superstructure -->
    <rect x="25" y="50" width="10" height="10" fill="#fa8c16" />
    
    <!-- Tugboat Windows -->
    <rect x="26" y="52" width="8" height="3" fill="#bae7ff" />
    
    <!-- Tugboat Smokestack -->
    <rect x="28" y="45" width="4" height="5" fill="#fa8c16" />
    <ellipse cx="30" cy="45" rx="2" ry="1" fill="#8c8c8c" opacity="0.7" />
    
    <!-- Tugboat Fenders -->
    <rect x="38" y="65" width="2" height="5" rx="1" fill="#d9d9d9" />
  </g>
  
  <!-- Towing Equipment -->
  <g>
    <!-- Towing Winch -->
    <circle cx="35" cy="58" r="2" fill="#8c8c8c" />
    
    <!-- Towing Line -->
    <path d="M35,58 Q50,50 65,58" stroke="#262626" stroke-width="1.5" fill="none" />
  </g>
  
  <!-- Ship Being Towed -->
  <g>
    <!-- Ship Hull -->
    <path d="M60,70 L85,70 L80,55 L65,55 Z" fill="#001529" />
    
    <!-- Ship Deck -->
    <rect x="65" y="55" width="15" height="2" fill="#8c8c8c" />
    
    <!-- Ship Bridge/Superstructure -->
    <rect x="75" y="45" width="5" height="10" fill="#001529" />
    
    <!-- Ship Windows -->
    <rect x="75.5" y="47" width="4" height="2" fill="#bae7ff" />
  </g>
  
  <!-- Water Effects -->
  <g>
    <!-- Tugboat Wake -->
    <path d="M15,72 Q17,71 19,72 Q21,73 23,72" stroke="white" stroke-width="1" fill="none" opacity="0.5" />
    <path d="M15,74 Q17,73 19,74 Q21,75 23,74" stroke="white" stroke-width="1" fill="none" opacity="0.5" />
    
    <!-- Ship Wake -->
    <path d="M60,72 Q57,71 54,72 Q51,73 48,72" stroke="white" stroke-width="1" fill="none" opacity="0.5" />
    <path d="M60,74 Q57,73 54,74 Q51,75 48,74" stroke="white" stroke-width="1" fill="none" opacity="0.5" />
  </g>
  
  <!-- Directional Indicators -->
  <g>
    <!-- Movement Arrow -->
    <path d="M15,65 L10,65 L12.5,62 Z" fill="#262626" />
    
    <!-- Force Indicators -->
    <line x1="15" y1="65" x2="20" y2="65" stroke="#262626" stroke-width="1" />
    <line x1="16" y1="63" x2="19" y2="63" stroke="#262626" stroke-width="1" />
    <line x1="17" y1="61" x2="18" y2="61" stroke="#262626" stroke-width="1" />
  </g>
  
  <!-- Port/Harbor Elements -->
  <g>
    <!-- Distant Dock -->
    <rect x="85" y="65" width="10" height="5" fill="#8c8c8c" />
    
    <!-- Navigation Buoy -->
    <circle cx="50" cy="65" r="2" fill="#f5222d" />
    <line x1="50" y1="65" x2="50" y2="70" stroke="#262626" stroke-width="1" />
  </g>
</svg>