<svg xmlns="http://www.w3.org/2000/svg" width="32" height="32" viewBox="0 0 32 32">
  <defs>
    <!-- Gradient for ship hull -->
    <linearGradient id="faviconShipGradient" x1="0%" y1="0%" x2="100%" y2="100%">
      <stop offset="0%" style="stop-color:#1e3a8a;stop-opacity:1" />
      <stop offset="50%" style="stop-color:#3b82f6;stop-opacity:1" />
      <stop offset="100%" style="stop-color:#1e40af;stop-opacity:1" />
    </linearGradient>
    
    <!-- Gradient for waves -->
    <linearGradient id="faviconWaveGradient" x1="0%" y1="0%" x2="100%" y2="0%">
      <stop offset="0%" style="stop-color:#0ea5e9;stop-opacity:0.8" />
      <stop offset="50%" style="stop-color:#0284c7;stop-opacity:1" />
      <stop offset="100%" style="stop-color:#0369a1;stop-opacity:0.8" />
    </linearGradient>
  </defs>
  
  <!-- Background circle -->
  <circle cx="16" cy="16" r="15" fill="#f8fafc" stroke="#e2e8f0" stroke-width="1"/>
  
  <!-- Ocean waves -->
  <path d="M4,22 Q8,20 12,22 T20,22 Q24,20 28,22" stroke="url(#faviconWaveGradient)" stroke-width="1.5" fill="none"/>
  <path d="M4,24 Q8,22 12,24 T20,24 Q24,22 28,24" stroke="url(#faviconWaveGradient)" stroke-width="1" fill="none" opacity="0.7"/>
  
  <!-- Simplified ship design -->
  <!-- Ship hull -->
  <path d="M6,18 L26,18 L24,22 L8,22 Z" fill="url(#faviconShipGradient)"/>
  
  <!-- Ship superstructure -->
  <rect x="10" y="14" width="6" height="4" fill="#1e40af" rx="0.5"/>
  <rect x="16" y="11" width="4" height="7" fill="#1e3a8a" rx="0.5"/>
  
  <!-- Ship details -->
  <rect x="11" y="15" width="1" height="1" fill="#60a5fa" rx="0.2"/>
  <rect x="13" y="15" width="1" height="1" fill="#60a5fa" rx="0.2"/>
  <rect x="17" y="12" width="1" height="1" fill="#60a5fa" rx="0.2"/>
  <rect x="17" y="14" width="1" height="1" fill="#60a5fa" rx="0.2"/>
  
  <!-- Mast and beacon -->
  <line x1="18" y1="11" x2="18" y2="7" stroke="#1e3a8a" stroke-width="1"/>
  <circle cx="18" cy="7" r="0.8" fill="#ef4444"/>
  
  <!-- Anchor symbol -->
  <g transform="translate(22,16) scale(0.7)">
    <path d="M0,-1 L0,2 M-1,1 L1,1 M-0.5,2 L0.5,2" stroke="#1e40af" stroke-width="0.8" fill="none"/>
    <circle cx="0" cy="-1" r="0.5" fill="none" stroke="#1e40af" stroke-width="0.8"/>
  </g>
</svg>
